<svg width="866" height="683" viewBox="0 0 866 683" fill="none" xmlns="http://www.w3.org/2000/svg">
<g clip-path="url(#clip0_1_2)">
<path d="M736 392.36C733.627 392.36 731.307 393.064 729.333 394.382C727.36 395.701 725.822 397.575 724.913 399.768C724.005 401.961 723.768 404.373 724.231 406.701C724.694 409.029 725.836 411.167 727.515 412.845C729.193 414.524 731.331 415.666 733.659 416.129C735.987 416.592 738.4 416.355 740.592 415.447C742.785 414.538 744.659 413 745.978 411.027C747.296 409.053 748 406.733 748 404.36C748 401.177 746.736 398.125 744.485 395.875C742.235 393.624 739.183 392.36 736 392.36ZM736 412.41C734.418 412.41 732.871 411.941 731.555 411.062C730.24 410.183 729.214 408.933 728.609 407.471C728.003 406.01 727.845 404.401 728.154 402.849C728.462 401.297 729.224 399.872 730.343 398.753C731.462 397.634 732.887 396.872 734.439 396.564C735.991 396.255 737.6 396.413 739.061 397.019C740.523 397.624 741.773 398.65 742.652 399.965C743.531 401.281 744 402.828 744 404.41C744 406.532 743.157 408.567 741.657 410.067C740.157 411.567 738.122 412.41 736 412.41Z" fill="#2F2E41"/>
<path d="M635.18 524.65L645.51 640.27H652.89L648.46 524.65H635.18Z" fill="#2F2E41"/>
<path d="M659.29 524.65L669.63 640.27H677.01L672.58 524.65H659.29Z" fill="#2F2E41"/>
<path d="M568.51 532.02L558.18 640.27H550.8L555.22 532.02H568.51Z" fill="#2F2E41"/>
<path d="M544.39 532.02L534.06 640.27H526.68L531.11 532.02H544.39Z" fill="#2F2E41"/>
<path d="M682.9 327.33H547.59V499.05H682.9V327.33Z" fill="#2F2E41"/>
<path opacity="0.08" d="M682.9 327.33H547.59V499.05H682.9V327.33Z" fill="white"/>
<path d="M408.74 449.85L347.23 640.27H362.49L423.5 449.85L484.02 640.27H498.29L438.26 449.85H408.74Z" fill="#CCCCCC"/>
<path d="M470.24 583.19H374.79L370.85 597.46H475.65L470.24 583.19Z" fill="#CCCCCC"/>
<path d="M514.49 643.45C515.2 648.13 512.03 650.45 509.17 651.59C507.357 652.281 505.43 652.62 503.49 652.59H459.35C433.35 652.92 436.81 640.79 436.81 640.79C436.81 640.79 437.62 647.31 449.17 648.72C449.17 648.72 468.17 651.91 481.5 650.08C481.5 650.11 510.39 651.8 514.49 643.45Z" fill="#3F3D56"/>
<path opacity="0.2" d="M514.49 643.45C515.2 648.13 512.03 650.45 509.17 651.59C507.357 652.281 505.43 652.62 503.49 652.59H459.35C433.35 652.92 436.81 640.79 436.81 640.79C436.81 640.79 437.62 647.31 449.17 648.72C449.17 648.72 468.17 651.91 481.5 650.08C481.5 650.11 510.39 651.8 514.49 643.45Z" fill="#231F20"/>
<path d="M376.85 601.5C376.85 601.5 373.52 611.4 394.21 612.5C407.243 613.441 420.344 612.6 433.15 610C433.15 610 462.15 606.1 457.77 597.51L451.84 600.18L409 609.39L376.85 601.5Z" fill="#3F3D56"/>
<path opacity="0.2" d="M376.85 601.5C376.85 601.5 373.52 611.4 394.21 612.5C407.243 613.441 420.344 612.6 433.15 610C433.15 610 462.15 606.1 457.77 597.51L451.84 600.18L409 609.39L376.85 601.5Z" fill="#231F20"/>
<path d="M438.54 542.51C438.54 542.51 426.47 582 419.46 584.69C419.46 584.69 425.14 591.69 426.14 603.38C426.14 603.38 431.63 601.72 435.36 601.98C437.268 602.143 439.187 602.117 441.09 601.9C447.66 601.04 458.7 597.9 450.67 586.2C450.67 586.2 445.33 578.85 452.01 566L460.32 551.62L438.54 542.51Z" fill="#F9B499"/>
<path d="M486.22 595.71C486.22 595.71 486.15 616.57 482.07 626.27C482.07 626.27 486.77 634.09 485.72 645.77L500.8 645.7C500.8 645.7 506.93 645.42 506.3 637.22C506.147 635.394 505.712 633.603 505.01 631.91C503.84 628.97 501.35 621.46 502.91 613.4L506.34 596.49L486.11 595L486.22 595.71Z" fill="#F9B499"/>
<path d="M478.57 356.33H417.23C413.943 356.327 410.792 355.02 408.468 352.695C406.145 350.369 404.84 347.217 404.84 343.93C404.84 340.644 406.145 337.493 408.469 335.169C410.792 332.845 413.944 331.54 417.23 331.54H478.57C480.2 331.535 481.816 331.851 483.324 332.472C484.832 333.092 486.202 334.004 487.357 335.155C488.512 336.306 489.428 337.673 490.053 339.179C490.678 340.685 491 342.3 491 343.93C491 345.561 490.678 347.176 490.053 348.682C489.428 350.189 488.512 351.557 487.357 352.709C486.203 353.861 484.832 354.773 483.324 355.395C481.817 356.016 480.201 356.334 478.57 356.33Z" fill="#ECECEC"/>
<path d="M535.81 344.3C534.504 342.113 533.727 339.653 533.54 337.113C533.352 334.573 533.76 332.025 534.73 329.67C535.921 326.718 536.486 323.551 536.39 320.37C536.351 318.071 535.761 315.814 534.67 313.79C534.67 313.79 526.57 303.67 532.21 295.11C532.826 294.213 533.548 293.394 534.36 292.67L539.6 287.92C539.6 287.92 539.82 287.75 540.17 287.42C542.801 284.946 544.423 281.586 544.724 277.988C545.025 274.389 543.983 270.806 541.8 267.93C541.03 266.93 540.08 265.71 538.91 264.32C537.301 262.452 536.099 260.269 535.38 257.91C533.83 252.65 533.97 244.21 545.78 236.69C545.78 236.69 555.46 233.02 560.47 232.35C560.47 232.35 560.77 231.85 561.24 231.14C562.879 228.662 564.221 226.001 565.24 223.21C566.3 220.21 568.87 215.88 575.13 212.34C579.308 210.037 583.948 208.698 588.71 208.42C600.64 207.63 626.63 209.33 632.71 238.02C632.71 238.02 635.89 241.86 634.88 249.87C634.88 249.87 635.22 264.72 644.23 267.23C644.23 267.23 654.09 268.02 661.97 272.58C665.855 274.857 668.709 278.549 669.933 282.883C671.158 287.217 670.659 291.856 668.54 295.83L668.47 295.97C667.711 297.315 667.231 298.799 667.059 300.333C666.887 301.867 667.027 303.421 667.47 304.9C668.47 308.14 670.82 312.37 675.87 317.24C679.349 320.553 682.077 324.573 683.87 329.03C686.55 335.83 687.69 345.35 680.59 355.34C680.59 355.34 676.03 362.58 663.51 365.41L663 364C663 364 686.44 360.14 683.44 334.11C683.44 334.11 681.8 357.16 662.27 362.33C662.27 362.33 650.27 336.44 644.72 326.93C644.72 326.93 642.22 321.26 632.2 317.93L614.51 311.93C610.922 310.535 607.161 309.636 603.33 309.26C603.33 309.26 600.83 298.58 601.66 294.41C601.66 294.41 605.5 289.41 605.84 286.8C605.84 286.8 607.66 275.16 603.26 267.75C603.26 267.75 571.46 256.19 561.26 243.34C561.26 243.34 556.59 249.34 555.75 262.2C554.91 275.06 563.1 303.09 579.28 304.59C579.28 304.59 577.28 309.76 576.45 310.59C576.45 310.59 557.75 316.93 554.92 317.76C554.92 317.76 545.55 319.45 541.04 330.47L535.81 344.3Z" fill="#2F2E41"/>
<path opacity="0.2" d="M538.44 323C538.44 323 543.11 317.82 539.44 309.81C539.44 309.81 532 299.3 539.64 290.81C539.64 290.81 530.03 294.64 532.1 304.99C532.572 307.251 533.534 309.382 534.92 311.23C537.467 314.604 538.717 318.781 538.44 323Z" fill="#231F20"/>
<path d="M581.3 304.73C581.3 304.73 591.3 304.81 601.68 294.43C601.394 297.524 601.586 300.644 602.25 303.68C602.25 303.68 589.61 313.7 581.3 304.73Z" stroke="#ED1C24" stroke-width="0.5" stroke-miterlimit="10"/>
<path opacity="0.37" d="M558.56 285.87C558.56 285.87 548.38 308.56 559.42 316.35L576.49 310.62L579.32 304.62C579.32 304.62 567.32 304.74 560.4 285.88C560.4 285.87 560.08 286.28 558.56 285.87Z" fill="#231F20"/>
<path opacity="0.37" d="M627.49 316.35C627.49 316.35 628.22 301.18 617.09 296.13C617.09 296.13 607.92 293.75 609.18 287.36C609.18 287.36 606.8 286.68 606.18 285.65C606.18 285.65 604.7 291.72 601.72 294.43C601.72 294.43 601.07 300.17 603.39 309.28C603.39 309.28 610.34 310 614.57 311.95L627.49 316.35Z" fill="#231F20"/>
<path d="M521.24 399.45L535.36 412.11H545.36L553.45 387.82L554.71 388.61C554.71 388.61 555.93 408.61 555.49 412.11H564.49C564.49 412.11 571.49 402.57 591.19 410.41C592.648 411.092 594.291 411.268 595.86 410.91L628.57 404.74C628.57 404.74 629.46 378.37 631.91 371.74L647.69 400C647.69 400 673.17 393.11 675.84 404.68C675.84 404.68 679.06 405.12 667.05 373.75C667.05 373.75 657.15 348.6 644.74 327.02C644.74 327.02 642.62 321.54 632.22 318.02C632.22 318.02 607.86 309.02 603.35 309.34L565.35 314.42C565.35 314.42 546.27 317.42 542.35 327.17L536.19 343.29C535.519 345.058 534.941 346.861 534.46 348.69L521.24 399.45Z" fill="#0071F2"/>
<path d="M515.83 398.06L518.63 412.11H535.36L521.24 399.45L515.83 398.06Z" fill="#F9B499"/>
<path d="M513.15 499.05H682.91V507.63C682.91 511.156 682.215 514.647 680.866 517.905C679.517 521.163 677.539 524.123 675.046 526.616C672.553 529.109 669.593 531.087 666.335 532.436C663.077 533.785 659.586 534.48 656.06 534.48H540C532.879 534.48 526.05 531.651 521.014 526.616C515.979 521.58 513.15 514.751 513.15 507.63V499.05Z" fill="#2F2E41"/>
<path opacity="0.2" d="M513.15 499.05H682.91V507.63C682.91 511.156 682.215 514.647 680.866 517.905C679.517 521.163 677.539 524.123 675.046 526.616C672.553 529.109 669.593 531.087 666.335 532.436C663.077 533.785 659.586 534.48 656.06 534.48H540C532.879 534.48 526.05 531.651 521.014 526.616C515.979 521.58 513.15 514.751 513.15 507.63V499.05Z" fill="black"/>
<path d="M770.49 435.58H705.54V449.85H770.49V435.58Z" fill="#CCCCCC"/>
<path opacity="0.2" d="M770.49 442.71H705.54V449.84H770.49V442.71Z" fill="#231F20"/>
<path d="M723.25 449.85L661.75 640.27H677.01L738.01 449.85L798.54 640.27H812.81L752.78 449.85H723.25Z" fill="#CCCCCC"/>
<path d="M784.76 583.19H689.3L685.37 597.46H790.17L784.76 583.19Z" fill="#CCCCCC"/>
<path d="M455.97 435.58H391.02V449.85H455.97V435.58Z" fill="#CCCCCC"/>
<path opacity="0.2" d="M455.97 442.71H391.02V449.84H455.97V442.71Z" fill="#231F20"/>
<path d="M838.16 421.49H322.61C319.291 421.49 316.6 424.181 316.6 427.5V429.56C316.6 432.879 319.291 435.57 322.61 435.57H838.16C841.479 435.57 844.17 432.879 844.17 429.56V427.5C844.17 424.181 841.479 421.49 838.16 421.49Z" fill="#CCCCCC"/>
<path opacity="0.2" d="M838.16 421.49H322.61C319.291 421.49 316.6 424.181 316.6 427.5V429.56C316.6 432.879 319.291 435.57 322.61 435.57H838.16C841.479 435.57 844.17 432.879 844.17 429.56V427.5C844.17 424.181 841.479 421.49 838.16 421.49Z" fill="#231F20"/>
<path d="M436.78 541.78L460.32 551.62C460.32 551.62 491.32 494.87 496.52 480.97C496.52 480.97 606.04 531.97 637.75 495.25C637.75 495.25 654.64 479.04 635.18 435.58H479.8C478.043 435.571 476.307 435.958 474.72 436.711C473.132 437.464 471.735 438.564 470.63 439.93C467.83 443.44 464.37 449.61 461.85 460.2L436.78 541.78Z" fill="#2F2E41"/>
<path d="M507.31 599.06C507.31 599.06 524.93 521.61 523.31 503.59C536.269 504.556 549.281 504.556 562.24 503.59C562.24 503.59 525.24 494.73 496.56 480.97L484.96 505.26V596L507.31 599.06Z" fill="#2F2E41"/>
<g opacity="0.2">
<path d="M485.15 505.3L484.69 505.23L484.95 503.36L485.42 503.43L485.15 505.3ZM485.68 501.56L485.21 501.49L485.48 499.62L485.94 499.69L485.68 501.56ZM486.21 497.82L485.74 497.75L486 495.88L486.47 495.95L486.21 497.82ZM486.73 494.08L486.26 494.01L486.53 492.14L486.99 492.21L486.73 494.08ZM487.26 490.34L486.79 490.27L487.05 488.4L487.52 488.47L487.26 490.34ZM487.78 486.6L487.32 486.53L487.58 484.67L488.05 484.73L487.78 486.6ZM488.31 482.87L487.85 482.79C487.94 482.17 488.05 481.55 488.16 480.93L488.63 481.01C488.51 481.63 488.41 482.25 488.31 482.87ZM489 479.17L488.54 479.07C488.68 478.45 488.82 477.84 488.98 477.22L489.44 477.34C489.28 478 489.14 478.56 489 479.17ZM489.95 475.53L489.49 475.4C489.65 474.87 489.82 474.4 490 473.83L490.08 473.59L490.52 473.75L490.44 473.98C490.27 474.5 490.1 475 490 475.53H489.95ZM604.6 473.06H603.21V472.59H605.09V473.06H604.6ZM607 473.06V472.59L608.88 472.49V472.96L607 473.06ZM601.32 473.06L599.43 472.96V472.49L601.31 472.59L601.32 473.06ZM610.78 472.82V472.35C611.42 472.28 612.05 472.2 612.64 472.11L612.71 472.58C612.06 472.6 611.43 472.68 610.78 472.75V472.82ZM597.53 472.77L595.67 472.45L595.75 471.99L597.61 472.31L597.53 472.77ZM614.53 472.25L614.44 471.78C615.06 471.66 615.68 471.52 616.26 471.36L616.38 471.82C615.79 471.9 615.16 472.05 614.53 472.18V472.25ZM593.81 472.13L591.95 471.81L592.03 471.35L593.89 471.67L593.81 472.13ZM491.17 472L490.73 471.83C490.97 471.22 491.21 470.64 491.46 470.08L491.89 470.27C491.65 470.8 491.41 471.38 491.17 472ZM590.09 471.45L588.23 471.13L588.31 470.66L590.17 470.98L590.09 471.45ZM618.2 471.23L618.05 470.78C618.65 470.58 619.24 470.36 619.8 470.12L619.98 470.56C619.41 470.78 618.82 471 618.2 471.21V471.23ZM586.36 470.81L584.5 470.49L584.58 470.02L586.44 470.34L586.36 470.81ZM582.64 470.17L580.78 469.85L580.86 469.38L582.72 469.7L582.64 470.17ZM621.71 469.74L621.48 469.32C622.031 469.015 622.565 468.681 623.08 468.32L623.34 468.71C622.814 469.075 622.27 469.412 621.71 469.72V469.74ZM578.92 469.53L577.06 469.21L577.14 468.75L579 469L578.92 469.53ZM575.2 468.89L573.34 468.57L573.42 468.11L575.28 468.43L575.2 468.89ZM492.68 468.57L492.26 468.36C492.54 467.78 492.84 467.22 493.15 466.68L493.56 466.92C493.26 467.42 493 468 492.68 468.55V468.57ZM571.48 468.25L569.62 467.93L569.7 467.47L571.56 467.79L571.48 468.25ZM567.76 467.61L565.9 467.29L565.98 466.83L567.84 467.15L567.76 467.61ZM624.86 467.61L624.55 467.26C625.018 466.852 625.462 466.418 625.88 465.96L626.23 466.27C625.802 466.733 625.344 467.167 624.86 467.57V467.61ZM564 467L562.14 466.69L562.22 466.22L564.08 466.54L564 467ZM560.28 466.37L558.41 466.05L558.49 465.58L560.36 465.9L560.28 466.37ZM556.55 465.73L554.69 465.41L554.77 464.94L556.63 465.26L556.55 465.73ZM494.49 465.35L494.1 465.09C494.45 464.55 494.82 464.03 495.19 463.53L495.57 463.82C495.24 464.25 494.88 464.77 494.53 465.3L494.49 465.35ZM552.83 465.09L550.97 464.77L551.05 464.3L552.91 464.62L552.83 465.09ZM627.37 464.77L626.98 464.51C627.321 463.995 627.631 463.461 627.91 462.91L628.33 463.12C628.058 463.673 627.751 464.207 627.41 464.72L627.37 464.77ZM549.11 464.45L547.25 464.13L547.33 463.67L549.19 463.99L549.11 464.45ZM545.39 463.81L543.53 463.49L543.61 463.03L545.47 463.35L545.39 463.81ZM541.67 463.17L539.81 462.85L539.89 462.39L541.75 462.71L541.67 463.17ZM537.95 462.53L536.09 462.21L536.17 461.75L538.03 462.07L537.95 462.53ZM496.76 462.38L496.41 462.07C496.84 461.59 497.29 461.13 497.75 460.71L498.07 461.06C497.626 461.462 497.202 461.886 496.8 462.33L496.76 462.38ZM534.23 461.89L532.37 461.58L532.45 461.11L534.31 461.43L534.23 461.89ZM629.06 461.34L628.62 461.19C628.817 460.603 628.981 460.006 629.11 459.4L629.57 459.5C629.445 460.104 629.288 460.702 629.1 461.29L629.06 461.34ZM530.51 461.26L528.64 460.94L528.72 460.47L530.59 460.79L530.51 461.26ZM526.78 460.62L524.92 460.3L525 459.83L526.86 460.15L526.78 460.62ZM523.06 459.98L521.2 459.66L521.28 459.2L523.14 459.51L523.06 459.98ZM499.51 459.88L499.23 459.5C499.744 459.132 500.282 458.798 500.84 458.5L501.07 458.91C500.544 459.184 500.036 459.491 499.55 459.83L499.51 459.88ZM519.34 459.34L517.48 459.02L517.56 458.56L519.42 458.88L519.34 459.34ZM515.62 458.7L513.76 458.38L513.84 457.92L515.7 458.24L515.62 458.7ZM502.79 458L502.62 457.56C503.218 457.328 503.833 457.144 504.46 457.01L504.56 457.47C503.958 457.604 503.366 457.781 502.79 458ZM511.94 458L510.08 457.68L510.16 457.22L512.02 457.54L511.94 458ZM629.94 457.55L629.47 457.5C629.538 456.882 629.574 456.261 629.58 455.64H630C630 456.31 630 457 629.91 457.56L629.94 457.55ZM508.25 457.36H508.13C507.565 457.265 506.992 457.235 506.42 457.27V456.8C507.028 456.765 507.639 456.799 508.24 456.9H508.35L508.25 457.36ZM629.54 453.77C629.54 453.17 629.44 452.54 629.36 451.91L629.83 451.85C629.91 452.49 629.97 453.13 630.01 453.74L629.54 453.77ZM629.06 450.06C628.94 449.46 628.81 448.84 628.66 448.23L629.12 448.11C629.27 448.74 629.41 449.36 629.52 449.97L629.06 450.06ZM628.17 446.41C627.99 445.8 627.79 445.2 627.6 444.62L628.04 444.47C628.24 445.06 628.44 445.66 628.62 446.28L628.17 446.41ZM626.95 442.85C626.72 442.24 626.48 441.66 626.25 441.11L626.68 440.92C626.92 441.48 627.16 442.07 627.39 442.68L626.95 442.85ZM625.48 439.39C625.18 438.76 624.9 438.19 624.65 437.7L625.07 437.49C625.33 437.98 625.61 438.55 625.91 439.19L625.48 439.39ZM623.76 436.04L623.56 435.69L623.76 435.57V435.33C623.9 435.33 623.9 435.33 624.17 435.81L623.76 436.04Z" fill="#231F20"/>
</g>
<path opacity="0.2" d="M484.92 514.38C484.92 514.38 492.67 488.15 509.8 493.6L546.3 504.32L562.2 503.59C562.2 503.59 543.2 500.74 496.52 480.97L484.92 505.26V514.38Z" fill="#231F20"/>
<path d="M415.3 580C415.001 579.778 414.659 579.619 414.296 579.533C413.934 579.447 413.557 579.436 413.19 579.5C406.68 580.67 373.77 587.39 377.08 603.34C377.08 603.34 377.41 612.02 410.62 610.19C410.62 610.19 460.68 605.85 457.68 596.19C457.68 596.19 457.81 594.02 453.47 593.67C453.47 593.67 454.42 601.84 437.05 602.04C433.361 601.718 429.646 602.168 426.14 603.36C426.14 603.36 425.1 587.23 415.3 580Z" fill="#0071F2"/>
<path d="M436.75 637.46C437.56 633 440.85 627.29 451.34 623.58C451.34 623.58 475.08 618.1 477.98 621.25C477.98 621.25 486.93 626.89 485.72 645.77L499.53 645.58C500.596 645.659 501.665 645.46 502.63 645C504.02 644.19 506.92 642.7 506.2 636.29C506.2 636.29 515.4 638.43 514.49 643.45C514.353 644.115 514.062 644.738 513.64 645.27C513.218 645.801 512.677 646.226 512.06 646.51C508.98 648.01 500.7 651.18 487.06 650.28C487.06 650.28 456.39 652.81 442.21 647.17C440.317 646.433 438.739 645.062 437.743 643.292C436.747 641.521 436.396 639.46 436.75 637.46Z" fill="#0071F2"/>
<path d="M414.39 421.49L400.3 349.86C400.139 349.043 400.161 348.2 400.364 347.393C400.568 346.585 400.947 345.833 401.476 345.189C402.005 344.546 402.669 344.028 403.422 343.672C404.175 343.315 404.997 343.131 405.83 343.13H495.73C496.904 343.126 498.043 343.529 498.954 344.269C499.865 345.008 500.492 346.041 500.73 347.19L515.85 421.49H414.39Z" fill="#2F2E41"/>
<path d="M411.6 338.58H499.11C500.646 338.58 502.134 339.115 503.318 340.093C504.503 341.072 505.309 342.432 505.6 343.94L518.6 412.11H564.44C564.44 412.11 561.76 412.16 554.26 421.49H515.83L500.71 347.19C500.71 347.19 500.01 341.87 492 343.13H405.83C404.741 343.154 403.681 343.484 402.77 344.081C401.86 344.679 401.135 345.521 400.68 346.51L402.87 343.24C403.829 341.804 405.127 340.628 406.65 339.815C408.173 339.002 409.874 338.578 411.6 338.58Z" fill="#2F2E41"/>
<path opacity="0.08" d="M411.6 338.58H499.11C500.646 338.58 502.134 339.115 503.318 340.093C504.503 341.072 505.309 342.432 505.6 343.94L518.6 412.11H564.44C564.44 412.11 561.76 412.16 554.26 421.49H515.83L500.71 347.19C500.71 347.19 500.01 341.87 492 343.13H405.83C404.741 343.154 403.681 343.484 402.77 344.081C401.86 344.679 401.135 345.521 400.68 346.51L402.87 343.24C403.829 341.804 405.127 340.628 406.65 339.815C408.173 339.002 409.874 338.578 411.6 338.58Z" fill="white"/>
<path opacity="0.08" d="M456.18 390.11C460.786 390.11 464.52 386.376 464.52 381.77C464.52 377.164 460.786 373.43 456.18 373.43C451.574 373.43 447.84 377.164 447.84 381.77C447.84 386.376 451.574 390.11 456.18 390.11Z" fill="white"/>
<path d="M706.72 383.71H734.53V410.71C734.53 413.572 733.393 416.316 731.37 418.34C729.346 420.363 726.602 421.5 723.74 421.5H717.51C714.648 421.5 711.904 420.363 709.88 418.34C707.857 416.316 706.72 413.572 706.72 410.71V383.71Z" fill="#2F2E41"/>
<path d="M565.39 314.36C565.39 314.36 566.64 340.15 585.66 341.36C585.66 341.36 604.86 344.2 614.53 311.99C610.948 310.577 607.184 309.678 603.35 309.32C603.35 309.32 601.18 298.32 601.68 293.69L580.1 303.15L576.49 310.66L565.39 314.36Z" fill="#F9B499"/>
<path opacity="0.37" d="M545 265.48C545 265.48 534.57 253.61 546.26 241.57C546.22 241.57 528.78 250.74 545 265.48Z" fill="#231F20"/>
<path opacity="0.37" d="M622.47 229.87C622.47 229.87 599 202.46 575 219.8C575 219.8 599.46 197.33 622.47 229.87Z" fill="#231F20"/>
<path opacity="0.37" d="M649.09 272.54C649.09 272.54 660.82 274.65 665.81 283.77C665.81 283.77 663.79 272.54 649.09 272.54Z" fill="#231F20"/>
<g opacity="0.37">
<path d="M658.66 353.2L657.66 352.45C663.45 344.65 658.66 330.97 656.36 325.45C655.846 324.299 655.226 323.198 654.51 322.16C649.93 315.16 655.51 304.86 655.71 304.43C657.8 300.52 658.09 297.21 656.58 294.57C652.83 288.05 639.35 287.45 639.22 287.45C634.07 287.31 630.4 285.76 628.3 282.86C625.19 278.54 626.69 272.8 626.89 272.11C630.01 242.47 612.26 234.11 612.08 234.04L612.59 232.89C612.78 232.97 631.38 241.66 628.14 272.3V272.42C628.14 272.47 626.47 278.14 629.36 282.13C631.21 284.7 634.55 286.06 639.29 286.19C639.88 286.19 653.61 286.83 657.7 293.95C659.44 296.95 659.15 300.71 656.85 305.03C656.79 305.13 651.43 315.1 655.6 321.47C656.368 322.572 657.037 323.74 657.6 324.96C659.91 330.68 664.84 344.88 658.66 353.2Z" fill="#231F20"/>
</g>
<path d="M554.29 421.49H665.34C665.34 421.49 683.78 417.81 675.84 404.63C675.84 404.63 675.59 393.52 647.69 399.95L626.69 405.09L595.83 410.91C595.83 410.91 594.18 411.51 591.16 410.41C591.17 410.41 571.32 398.53 554.29 421.49Z" fill="#F9B499"/>
<path d="M576.49 310.62L579.32 304.62C579.32 304.62 597.14 303.98 601.68 293.62C601.68 293.65 601.4 308.27 576.49 310.62Z" fill="#F4A48E"/>
<path d="M561.3 243.36C561.3 243.36 551.58 254.92 557.68 277.68C557.68 277.68 563.3 303.11 579.32 304.61C579.32 304.61 589.5 306.61 601.68 294.43C601.68 294.43 611.53 284.92 603.68 267.56C603.69 267.56 573.48 257.38 561.3 243.36Z" fill="#F9B499"/>
</g>
<defs>
<clipPath id="clip0_1_2">
<rect width="866" height="683" fill="white"/>
</clipPath>
</defs>
</svg>
